<?xml version="1.0" encoding="utf-8"?>
<svg viewBox="0 0 500 500" xmlns="http://www.w3.org/2000/svg">
  <g id="layer1" transform="matrix(2.9775760173797607, 0, 0, 2.8865509033203125, -61.0472412109375, -89.2105712890625)" style="">
    <path style="fill-opacity: 1; fill: rgb(28, 9, 113);" d="M 98.401 174.527 C 98.604 174.445 98.848 174.455 98.942 174.549 C 99.035 174.643 98.869 174.71 98.571 174.697 C 98.242 174.684 98.176 174.617 98.401 174.527 L 98.401 174.527 Z M 109.407 174.527 C 109.611 174.445 109.854 174.455 109.948 174.549 C 110.042 174.643 109.875 174.71 109.578 174.697 C 109.249 174.684 109.182 174.617 109.407 174.527 L 109.407 174.527 Z M 86.846 137.537 C 86.495 137.089 86.505 137.079 86.953 137.43 C 87.423 137.799 87.573 138.031 87.34 138.031 C 87.282 138.031 87.06 137.808 86.846 137.537 Z M 120.749 137.924 C 120.749 137.866 120.971 137.643 121.243 137.43 C 121.691 137.079 121.701 137.089 121.35 137.537 C 120.981 138.007 120.749 138.156 120.749 137.924 L 120.749 137.924 Z M 86.6 103.775 C 86.6 103.717 86.823 103.494 87.094 103.281 C 87.542 102.93 87.552 102.94 87.201 103.388 C 86.832 103.858 86.6 104.008 86.6 103.775 Z M 120.995 103.388 C 120.644 102.94 120.654 102.93 121.102 103.281 C 121.572 103.65 121.722 103.882 121.489 103.882 C 121.431 103.882 121.208 103.66 120.995 103.388 L 120.995 103.388 Z M 98.401 66.436 C 98.604 66.354 98.848 66.364 98.942 66.458 C 99.035 66.552 98.869 66.618 98.571 66.606 C 98.242 66.593 98.176 66.526 98.401 66.436 Z M 109.407 66.436 C 109.611 66.354 109.854 66.364 109.948 66.458 C 110.042 66.552 109.875 66.618 109.578 66.606 C 109.249 66.593 109.182 66.526 109.407 66.436 L 109.407 66.436 Z" id="path7"/>
    <path style="fill-opacity: 1; fill: rgb(28, 9, 113);" d="M 103.745 144.617 C 103.939 144.539 104.257 144.539 104.451 144.617 C 104.645 144.695 104.486 144.759 104.098 144.759 C 103.71 144.759 103.551 144.695 103.745 144.617 L 103.745 144.617 Z M 79.871 120.533 C 79.871 120.145 79.936 119.986 80.014 120.18 C 80.092 120.374 80.092 120.692 80.014 120.886 C 79.936 121.08 79.871 120.921 79.871 120.533 Z M 128.131 120.533 C 128.131 120.145 128.196 119.986 128.274 120.18 C 128.352 120.374 128.352 120.692 128.274 120.886 C 128.196 121.08 128.131 120.921 128.131 120.533 Z M 103.745 96.357 C 103.939 96.279 104.257 96.279 104.451 96.357 C 104.645 96.435 104.486 96.499 104.098 96.499 C 103.71 96.499 103.551 96.435 103.745 96.357 L 103.745 96.357 Z" id="path6"/>
    <path style="fill-opacity: 1; fill: rgb(28, 9, 113);" d="M 99.53 174.527 C 99.733 174.445 99.977 174.455 100.07 174.549 C 100.164 174.643 99.998 174.71 99.7 174.697 C 99.371 174.684 99.304 174.617 99.53 174.527 L 99.53 174.527 Z M 108.278 174.527 C 108.482 174.445 108.726 174.455 108.819 174.549 C 108.913 174.643 108.746 174.71 108.449 174.697 C 108.12 174.684 108.053 174.617 108.278 174.527 L 108.278 174.527 Z M 99.53 66.436 C 99.733 66.354 99.977 66.364 100.07 66.458 C 100.164 66.552 99.998 66.618 99.7 66.606 C 99.371 66.593 99.304 66.526 99.53 66.436 Z M 108.278 66.436 C 108.482 66.354 108.726 66.364 108.819 66.458 C 108.913 66.552 108.746 66.618 108.449 66.606 C 108.12 66.593 108.053 66.526 108.278 66.436 Z" id="path5"/>
    <path style="fill-opacity: 1; fill: rgb(28, 9, 113);" d="M 100.376 174.527 C 100.58 174.445 100.823 174.455 100.917 174.549 C 101.011 174.643 100.844 174.71 100.547 174.697 C 100.218 174.684 100.151 174.617 100.376 174.527 L 100.376 174.527 Z M 107.432 174.527 C 107.636 174.445 107.879 174.455 107.973 174.549 C 108.067 174.643 107.9 174.71 107.602 174.697 C 107.274 174.684 107.207 174.617 107.432 174.527 L 107.432 174.527 Z M 133.449 150.624 C 133.449 150.566 133.671 150.343 133.943 150.13 C 134.391 149.779 134.401 149.789 134.05 150.237 C 133.681 150.707 133.449 150.856 133.449 150.624 Z M 100.376 66.436 C 100.58 66.354 100.823 66.364 100.917 66.458 C 101.011 66.552 100.844 66.618 100.547 66.606 C 100.218 66.593 100.151 66.526 100.376 66.436 L 100.376 66.436 Z M 107.432 66.436 C 107.636 66.354 107.879 66.364 107.973 66.458 C 108.067 66.552 107.9 66.618 107.602 66.606 C 107.274 66.593 107.207 66.526 107.432 66.436 L 107.432 66.436 Z" id="path4"/>
    <path style="fill-opacity: 1; fill: rgb(28, 9, 113);" d="M 101.223 174.527 C 101.427 174.445 101.67 174.455 101.764 174.549 C 101.858 174.643 101.691 174.71 101.393 174.697 C 101.065 174.684 100.998 174.617 101.223 174.527 L 101.223 174.527 Z M 106.585 174.527 C 106.789 174.445 107.032 174.455 107.126 174.549 C 107.22 174.643 107.053 174.71 106.756 174.697 C 106.427 174.684 106.36 174.617 106.585 174.527 L 106.585 174.527 Z M 101.223 66.436 C 101.427 66.354 101.67 66.364 101.764 66.458 C 101.858 66.552 101.691 66.618 101.393 66.606 C 101.065 66.593 100.998 66.526 101.223 66.436 L 101.223 66.436 Z M 106.585 66.436 C 106.789 66.354 107.032 66.364 107.126 66.458 C 107.22 66.552 107.053 66.618 106.756 66.606 C 106.427 66.593 106.36 66.526 106.585 66.436 L 106.585 66.436 Z" id="path3"/>
    <path style="fill-opacity: 1; fill: rgb(28, 9, 113);" d="M 102.07 174.527 C 102.273 174.445 102.517 174.455 102.61 174.549 C 102.704 174.643 102.538 174.71 102.24 174.697 C 101.911 174.684 101.844 174.617 102.07 174.527 L 102.07 174.527 Z M 105.738 174.527 C 105.942 174.445 106.186 174.455 106.279 174.549 C 106.373 174.643 106.206 174.71 105.909 174.697 C 105.58 174.684 105.513 174.617 105.738 174.527 L 105.738 174.527 Z M 53.826 155.317 C 53.475 154.869 53.485 154.859 53.933 155.21 C 54.205 155.423 54.427 155.646 54.427 155.704 C 54.427 155.936 54.195 155.787 53.826 155.317 L 53.826 155.317 Z M 153.769 155.704 C 153.769 155.646 153.991 155.423 154.263 155.21 C 154.711 154.859 154.721 154.869 154.37 155.317 C 154.001 155.787 153.769 155.936 153.769 155.704 Z M 53.58 85.995 C 53.58 85.937 53.803 85.714 54.074 85.501 C 54.522 85.15 54.532 85.16 54.181 85.608 C 53.812 86.078 53.58 86.228 53.58 85.995 Z M 154.015 85.608 C 153.664 85.16 153.674 85.15 154.122 85.501 C 154.394 85.714 154.616 85.937 154.616 85.995 C 154.616 86.228 154.384 86.078 154.015 85.608 Z M 102.07 66.436 C 102.273 66.354 102.517 66.364 102.61 66.458 C 102.704 66.552 102.538 66.618 102.24 66.606 C 101.911 66.593 101.844 66.526 102.07 66.436 Z M 105.738 66.436 C 105.942 66.354 106.186 66.364 106.279 66.458 C 106.373 66.552 106.206 66.618 105.909 66.606 C 105.58 66.593 105.513 66.526 105.738 66.436 Z" id="path2"/>
    <path style="fill-opacity: 1; fill: rgb(28, 9, 113);" d="M 99.534 172.091 C 83.385 171.316 68.44 165.705 55.789 155.669 C 50.342 151.347 43.894 144.272 39.797 138.123 C 36.564 133.27 33.355 126.766 31.407 121.119 L 30.36 118.085 L 31.407 115.051 C 35.117 104.296 41.201 94.602 49.439 86.317 C 60.039 75.658 72.218 68.965 86.938 65.71 C 96.67 63.557 108.606 63.557 118.338 65.71 C 128.006 67.848 136.086 71.27 144.266 76.691 C 152.155 81.919 159.989 89.805 165.479 98.047 C 168.712 102.9 171.921 109.404 173.869 115.051 L 174.916 118.085 L 173.869 121.119 C 170.159 131.874 164.076 141.568 155.837 149.852 C 144.862 160.888 131.937 167.797 116.608 170.821 C 111.91 171.748 104.255 172.317 99.534 172.091 Z M 108.706 159.812 C 130.519 156.609 146.327 136.938 144.678 115.051 C 142.425 85.155 110.643 67.017 83.87 80.347 C 68.576 87.963 59.321 104.177 60.598 121.119 C 61.437 132.255 66.503 142.438 74.839 149.742 C 84.166 157.914 96.55 161.597 108.706 159.812 Z M 98.873 141.797 C 89.519 140.095 82.337 133.729 79.606 124.717 C 78.92 122.453 78.836 121.732 78.836 118.085 C 78.836 114.438 78.92 113.717 79.606 111.453 C 82.04 103.421 87.974 97.487 96.006 95.053 C 98.27 94.367 98.991 94.283 102.638 94.283 C 106.285 94.283 107.006 94.367 109.27 95.053 C 117.302 97.487 123.236 103.421 125.67 111.453 C 126.356 113.717 126.44 114.438 126.44 118.085 C 126.44 121.732 126.356 122.453 125.67 124.717 C 122.591 134.876 113.933 141.598 103.485 141.94 C 101.7 141.998 99.624 141.934 98.873 141.797 Z" id="path1"/>
  </g>
</svg>